<svg width="23" height="23" viewBox="0 0 23 23" fill="none" xmlns="http://www.w3.org/2000/svg">
<path fill-rule="evenodd" clip-rule="evenodd" d="M20.1409 15.7675C20.179 15.8236 20.2171 15.8797 20.253 15.9357C20.6208 16.4583 20.9505 16.992 20.955 17.768C20.955 18.3376 20.6186 19.1561 19.0173 19.8132C17.9409 20.255 16.4563 20.56 14.7115 20.699C14.3258 21.9975 13.1529 22.9461 11.7692 22.9461C10.3743 22.9461 9.19695 21.9863 8.81795 20.6721C7.08441 20.5331 5.60205 20.2236 4.51887 19.7751C2.91989 19.1113 2.5835 18.3017 2.5835 17.7388C2.5835 16.9561 2.92662 16.4403 3.25852 15.9425L3.27646 15.9156L3.2765 15.9155C3.31461 15.8572 3.35272 15.7989 3.39308 15.7406C3.90664 14.9737 4.48747 14.1058 4.48747 11.3092V9.87397C4.48747 8.36694 5.01897 6.93167 6.02366 5.72514C6.92967 4.63972 8.18778 3.80323 9.58492 3.35471C9.5782 3.29415 9.57595 3.23136 9.57595 3.16857C9.57595 1.9598 10.5582 0.977539 11.767 0.977539C12.9757 0.977539 13.958 1.9598 13.958 3.16857C13.958 3.24033 13.9535 3.30985 13.9468 3.38162C15.3484 3.84135 16.6088 4.68233 17.5103 5.76103C18.515 6.96306 19.0465 8.39385 19.0465 9.90088V11.3362C19.0465 14.1327 19.6273 15.0006 20.1409 15.7675ZM12.8302 3.07417C12.7831 2.52921 12.3234 2.09863 11.7649 2.09863C11.2021 2.09863 10.7378 2.53818 10.6997 3.09211C11.0294 3.03604 11.4016 2.98895 11.7425 2.98671C12.1933 2.98446 12.4916 3.00689 12.8302 3.07417ZM11.7649 21.8236C11.0181 21.8236 10.3677 21.3818 10.0381 20.7314C10.0944 20.7336 10.1518 20.7362 10.2097 20.7389L10.2103 20.7389C10.2743 20.7418 10.339 20.7448 10.4036 20.7471C10.6161 20.757 10.8276 20.766 11.0183 20.774L11.0187 20.7741L11.019 20.7741C11.1321 20.7789 11.2378 20.7833 11.3321 20.7875C11.4 20.7899 11.4616 20.7929 11.5155 20.7955C11.563 20.7979 11.6046 20.7999 11.6393 20.801C11.6555 20.8019 11.6701 20.8025 11.683 20.803C11.7006 20.8036 11.7152 20.8042 11.7268 20.8055H11.7514H11.7716C11.812 20.8055 11.8524 20.801 11.8927 20.7942C12.1282 20.783 12.8055 20.7606 13.485 20.7404C13.1553 21.3863 12.5094 21.8236 11.7649 21.8236ZM14.4245 19.5934C16.1401 19.4701 17.5798 19.1875 18.5868 18.7726C19.5017 18.3959 19.8292 18.0034 19.8292 17.7679C19.8292 17.3194 19.6229 16.992 19.3313 16.5793L19.3201 16.5637C19.301 16.5356 19.2825 16.5076 19.264 16.4795C19.2455 16.4515 19.227 16.4235 19.208 16.3955C18.9366 15.9918 18.6002 15.4872 18.3446 14.6978C18.062 13.8187 17.923 12.7198 17.923 11.3406V9.90534C17.923 8.66518 17.4812 7.48108 16.6469 6.48312C15.8485 5.52553 14.7138 4.78771 13.4534 4.40422C12.6304 4.15529 12.4106 4.1082 11.7468 4.11044C11.1615 4.11268 10.3407 4.3033 10.0671 4.37955C8.81347 4.74958 7.6832 5.48292 6.88259 6.445C6.04834 7.4452 5.60654 8.63378 5.60654 9.87619V11.3115C5.60654 12.6907 5.46974 13.7873 5.18493 14.6686C4.92927 15.4603 4.59288 15.9626 4.32153 16.3663C4.3045 16.3923 4.28746 16.4175 4.27063 16.4424C4.24979 16.4731 4.22925 16.5035 4.2094 16.5345L4.18921 16.5659L4.18708 16.5691C3.90562 16.9913 3.70257 17.2959 3.70257 17.7388C3.70257 17.963 4.02774 18.3577 4.94497 18.739C5.96087 19.1606 7.40063 19.4476 9.1095 19.5687C10.0312 19.6114 11.3745 19.6719 11.7132 19.6854C11.7177 19.6854 11.7216 19.6848 11.7255 19.6842C11.7294 19.6837 11.7333 19.6831 11.7378 19.6831C11.7625 19.6809 11.7961 19.6786 11.8388 19.6764C11.9128 19.6719 12.0182 19.6674 12.1527 19.6629C12.3792 19.654 12.6932 19.6428 13.0856 19.6315C13.7024 19.6136 14.3303 19.5957 14.4245 19.5934Z" fill="#151E26" fill-opacity="0.6"/>
</svg>
