<svg width="36" height="37" viewBox="0 0 36 37" fill="none" xmlns="http://www.w3.org/2000/svg">
<path d="M18.25 0.326172C27.9142 0.326172 35.75 8.35967 35.75 18.2676C35.75 28.1756 27.9142 36.2091 18.25 36.2091C8.58582 36.2091 0.75 28.1756 0.75 18.2676C0.75 8.35967 8.58582 0.326172 18.25 0.326172Z" fill="#F16A21"/>
<path d="M17.4667 21.9136C17.2055 19.3964 15.1159 17.4684 12.6085 17.4684C9.94431 17.4684 7.69804 19.7178 7.69804 22.5027C7.69804 22.9312 7.33237 23.2525 6.96669 23.2525C6.54878 23.2525 6.23535 22.8776 6.23535 22.5027C6.23535 18.9144 9.10849 15.9688 12.6085 15.9688C15.8995 15.9688 18.6682 18.5395 18.9816 21.86C18.8249 21.6458 18.5637 21.5387 18.2503 21.5387C17.9368 21.4851 17.6756 21.6458 17.4667 21.9136Z" fill="white"/>
<path d="M30.2653 22.5026C30.2653 26.0909 27.3922 29.0365 23.8922 29.0365C20.6011 29.0365 17.8325 26.4658 17.519 23.1452C17.6758 23.3595 17.937 23.4666 18.2504 23.4666C18.5638 23.4666 18.825 23.3059 19.034 23.0381C19.2952 25.5553 21.3847 27.4833 23.8922 27.4833C26.6086 27.4833 28.8026 25.234 28.8026 22.449C28.8026 22.0206 29.1683 21.6992 29.534 21.6992C29.9519 21.6992 30.2653 22.0206 30.2653 22.5026Z" fill="white"/>
<path fill-rule="evenodd" clip-rule="evenodd" d="M16.2651 11.3076C16.2651 13.3963 14.6457 15.0566 12.6084 15.0566C10.5711 15.0566 8.95166 13.3963 8.95166 11.3076C8.95166 9.21891 10.5711 7.55865 12.6084 7.55865C14.6457 7.55865 16.2651 9.21891 16.2651 11.3076Z" fill="white"/>
<path fill-rule="evenodd" clip-rule="evenodd" d="M26.7126 23.6792C26.7126 25.2859 25.4589 26.5713 23.8917 26.5713C22.3245 26.5713 21.0708 25.2859 21.0708 23.6792C21.0708 22.0725 22.3245 20.7872 23.8917 20.7872C25.4066 20.7872 26.7126 22.0725 26.7126 23.6792Z" fill="white"/>
</svg>
