<svg width="23" height="23" viewBox="0 0 23 23" fill="none" xmlns="http://www.w3.org/2000/svg">
<path fill-rule="evenodd" clip-rule="evenodd" d="M7.29448 18.6395C8.42872 19.1188 9.6337 19.363 10.8752 19.363C12.1167 19.363 13.3217 19.121 14.4536 18.6372C15.549 18.1739 16.5327 17.5098 17.3771 16.6654C18.2215 15.821 18.8856 14.8374 19.3488 13.742C19.8281 12.6078 20.0723 11.4028 20.0723 10.1613C20.0723 8.9198 19.8281 7.71482 19.3488 6.58059C18.8856 5.48515 18.2215 4.50154 17.3771 3.65714C16.5327 2.81274 15.549 2.14864 14.4536 1.68536C13.3194 1.2061 12.1144 0.961914 10.8729 0.961914C9.63141 0.961914 8.42643 1.2061 7.2922 1.68536C6.19677 2.14864 5.21316 2.81274 4.36876 3.65714C3.52436 4.50154 2.86025 5.48515 2.39697 6.58059C1.91772 7.7171 1.67581 8.92208 1.67581 10.1636C1.67581 11.4051 1.92 12.61 2.39926 13.7443C2.86253 14.8397 3.52664 15.8233 4.37104 16.6677C5.21544 17.5121 6.19905 18.1762 7.29448 18.6395ZM5.17652 4.46327C6.69872 2.94107 8.72299 2.10352 10.8751 2.10352C13.0271 2.10352 15.0514 2.94335 16.5713 4.46555C18.0935 5.98775 18.9311 8.01202 18.9311 10.1641C18.9311 12.3162 18.0935 14.3404 16.5713 15.8626C15.0491 17.3848 13.0249 18.2224 10.8728 18.2224C8.72071 18.2224 6.69643 17.3848 5.17423 15.8626C3.65204 14.3404 2.81448 12.3162 2.81448 10.1641C2.81448 8.00974 3.65432 5.98547 5.17652 4.46327Z" fill="#151E26" fill-opacity="0.6"/>
<path d="M22.0533 22.9564C21.9073 22.9564 21.7612 22.9016 21.6494 22.7898L17.4183 18.5586C17.1946 18.335 17.1946 17.9744 17.4183 17.7507C17.6419 17.5271 18.0025 17.5271 18.2261 17.7507L22.4573 21.9819C22.6809 22.2055 22.6809 22.5661 22.4573 22.7898C22.3454 22.9016 22.1994 22.9564 22.0533 22.9564Z" fill="#151E26" fill-opacity="0.6"/>
</svg>
