<svg width="23" height="28" viewBox="0 0 23 28" fill="none" xmlns="http://www.w3.org/2000/svg">
<path d="M22.1749 5.21328H1.32536C1.00911 5.21328 0.752441 4.95179 0.752441 4.62959C0.752441 4.30739 1.00911 4.0459 1.32536 4.0459H22.1749C22.4912 4.0459 22.7479 4.30739 22.7479 4.62959C22.7479 4.95179 22.4912 5.21328 22.1749 5.21328Z" fill="#151E26" fill-opacity="0.6"/>
<path d="M22.1749 14.3807H1.32536C1.00911 14.3807 0.752441 14.1192 0.752441 13.797C0.752441 13.4748 1.00911 13.2133 1.32536 13.2133H22.1749C22.4912 13.2133 22.7479 13.4748 22.7479 13.797C22.7479 14.1215 22.4912 14.3807 22.1749 14.3807Z" fill="#151E26" fill-opacity="0.6"/>
<path d="M22.1749 23.5481H1.32536C1.00911 23.5481 0.752441 23.2866 0.752441 22.9644C0.752441 22.6422 1.00911 22.3807 1.32536 22.3807H22.1749C22.4912 22.3807 22.7479 22.6422 22.7479 22.9644C22.7479 23.2866 22.4912 23.5481 22.1749 23.5481Z" fill="#151E26" fill-opacity="0.6"/>
</svg>
